# Blender 4.1.1
# www.blender.org
mtllib kite.mtl
o Plane
v -0.006727 0.081614 0.859350
v 2.119260 0.081614 0.055361
v -2.072337 0.081614 0.034612
v 0.004786 0.182645 -2.742749
v -1.040740 0.081614 0.399538
v 1.250537 0.081614 0.701432
v 1.319067 0.081614 0.013201
v 1.275060 0.081614 0.217584
v 1.710330 0.081614 -0.194682
v 1.501241 0.081614 -0.139575
v 1.867494 0.081614 -0.149917
v 0.337240 0.081614 0.216343
v 0.194781 0.081614 0.365476
v 0.671551 0.081614 0.136243
v 0.097336 0.081614 0.538329
v 1.124982 0.081614 0.430731
v 1.037879 0.081614 0.307601
v 1.262690 0.081614 0.400940
v -0.406133 0.084847 0.156285
v -0.573893 0.081614 0.136980
v -0.185295 0.081614 0.352395
v -0.898346 0.081614 0.234979
v -0.082738 0.081614 0.548420
v -0.278649 0.081614 0.224906
v -0.732686 0.081614 0.166034
v -1.282154 0.081350 -0.071763
v -1.667558 0.081614 -0.199439
v -1.172533 0.081614 0.331447
v -1.172171 0.081614 0.120140
v -1.478659 0.081614 -0.170039
v -1.808278 0.081614 -0.146825
v -1.169689 0.081614 0.606410
v 0.491574 0.081614 0.152974
v 0.809185 0.082893 0.172831
v 0.932441 0.081614 0.227348
v -1.033775 0.118048 -1.354068
v -1.553056 0.081614 -0.659728
v 1.062023 0.117851 -1.343694
v 1.590641 0.081614 -0.644167
v -1.115117 0.101325 -0.373829
v 1.023225 0.086557 -0.425438
v 0.027274 0.094175 -0.357370
vn -0.0000 1.0000 -0.0000
vn 0.0248 -0.9983 -0.0523
vn -0.0032 -0.9999 -0.0120
vn -0.0059 -0.9995 -0.0323
vn -0.0124 -0.9992 -0.0369
vn 0.0124 -0.9992 -0.0372
vn 0.0037 0.9992 0.0401
vn 0.0037 0.9992 0.0403
vn -0.0001 0.9864 -0.1643
vn 0.0008 1.0000 -0.0018
vn -0.0002 1.0000 -0.0006
vn -0.0122 0.9996 0.0271
vn 0.8008 -0.0000 0.5989
vn -0.7978 -0.0000 0.6029
vn -0.0002 0.9988 0.0483
vn -0.0359 0.9943 0.1004
vn 0.0005 1.0000 -0.0030
vn 0.0040 1.0000 0.0048
vn 0.0058 0.9999 0.0104
vn 0.2914 -0.9566 -0.0030
vn -0.0370 -0.9979 -0.0539
vn -0.0148 -0.9991 -0.0397
vn 0.3309 -0.9437 0.0006
vn 0.0311 -0.9994 -0.0145
vn 0.0117 -0.9971 -0.0755
vn 0.0598 -0.9977 -0.0329
vn -0.0181 -0.9998 -0.0007
vn -0.0222 -0.9991 -0.0350
vn -0.0167 -0.9999 -0.0011
vn -0.0127 -0.9999 -0.0027
vn -0.0079 -1.0000 0.0021
vn -0.0060 -1.0000 -0.0072
vn -0.0000 -1.0000 -0.0000
vn -0.0006 -0.9989 -0.0459
vn -0.0036 -1.0000 -0.0088
vn -0.0028 -0.9820 0.1891
vn 0.0167 -0.9998 -0.0078
vn 0.0098 -0.9999 -0.0069
vn 0.0052 -1.0000 -0.0068
vn -0.0082 -0.9999 -0.0087
vn -0.0028 -0.9998 -0.0172
vn -0.0354 -0.9991 -0.0221
vn -0.0265 -0.9994 -0.0229
vn -0.0061 -0.9999 -0.0123
vn 0.1938 -0.6819 -0.7053
vn -0.0117 -0.9995 -0.0282
vn -0.0000 -0.9993 -0.0385
vn -0.0100 -0.9994 -0.0345
vn -0.0060 -0.9998 -0.0176
vt 0.406250 0.000000
vt 0.437500 0.000000
vt 0.562840 0.000000
vt 0.250000 0.781250
vt 0.000000 0.750000
vt 0.000000 0.812500
vt 0.750000 0.250000
vt 0.874321 0.000000
vt 0.812160 0.000000
vt 0.000000 0.375000
vt 0.000000 0.406250
vt 1.000000 0.500000
vt 0.500000 0.515625
vt 1.000000 1.000000
vt 0.500000 1.000000
vt 0.000000 0.062500
vt 0.000000 0.000000
vt 0.062500 0.000000
vt 0.125000 0.000000
vt 0.000000 0.125000
vt 0.250000 0.000000
vt 0.000000 0.187500
vt 0.312500 0.000000
vt 0.000000 0.250000
vt 0.375000 0.000000
vt 0.000000 0.625000
vt 0.000000 0.562500
vt 0.000000 0.500000
vt 0.000000 0.687500
vt 0.000000 0.437500
vt 0.000000 0.875000
vt 0.250000 1.000000
vt 0.000000 1.000000
vt 0.000000 0.937500
vt 1.000000 0.250000
vt 0.937160 0.000000
vt 1.000000 0.000000
vt 0.390625 0.000000
vt 0.750000 0.000000
vt 0.398438 0.000000
vt 0.625679 0.000000
vt 0.500000 0.000000
s 0
usemtl Material.001
f 17/1/1 16/2/1 18/3/1
f 40/4/2 26/5/2 30/6/2
f 41/7/3 9/8/3 10/9/3
f 20/10/4 25/11/4 40/4/4
f 38/12/5 42/13/5 4/14/5
f 42/13/6 36/15/6 4/14/6
f 23/16/1 1/17/1 15/18/1
f 23/16/1 15/18/1 13/19/1
f 21/20/1 23/16/1 13/19/1
f 21/20/1 13/19/1 12/21/1
f 24/22/1 21/20/1 12/21/1
f 24/22/1 12/21/1 33/23/1
f 19/24/7 24/22/7 33/23/7
f 19/24/8 33/23/8 14/25/8
f 20/10/9 19/24/9 14/25/9
f 28/26/1 32/27/1 5/28/1
f 29/29/1 28/26/1 5/28/1
f 29/29/1 5/28/1 22/30/1
f 26/5/10 29/29/10 22/30/10
f 26/5/11 22/30/11 25/11/11
f 30/6/12 26/5/12 25/11/12
f 30/6/1 25/11/1 20/10/1
f 30/6/1 20/10/1 14/25/1
f 27/31/1 30/6/1 14/25/1
f 37/32/1 3/33/1 31/34/1
f 37/32/1 31/34/1 27/31/1
f 4/14/13 36/15/13 37/32/13
f 39/35/14 38/12/14 4/14/14
f 11/36/1 2/37/1 39/35/1
f 9/8/1 11/36/1 39/35/1
f 39/35/15 4/14/15 37/32/15
f 37/32/1 27/31/1 14/25/1
f 37/32/16 14/25/16 34/38/16
f 9/8/1 39/35/1 37/32/1
f 10/9/1 9/8/1 37/32/1
f 10/9/17 37/32/17 34/38/17
f 7/39/18 10/9/18 34/38/18
f 7/39/19 34/38/19 35/40/19
f 8/41/1 7/39/1 35/40/1
f 8/41/1 35/40/1 17/1/1
f 16/2/1 6/42/1 18/3/1
f 18/3/1 8/41/1 17/1/1
f 3/33/13 37/32/13 36/15/13
f 40/4/20 32/27/20 28/26/20
f 31/34/21 3/33/21 36/15/21
f 27/31/22 31/34/22 36/15/22
f 40/4/23 28/26/23 29/29/23
f 27/31/24 36/15/24 40/4/24
f 30/6/25 27/31/25 40/4/25
f 40/4/26 29/29/26 26/5/26
f 18/3/27 6/42/27 41/7/27
f 41/7/28 38/12/28 39/35/28
f 8/41/29 18/3/29 41/7/29
f 7/39/30 8/41/30 41/7/30
f 41/7/31 39/35/31 9/8/31
f 10/9/32 7/39/32 41/7/32
f 15/18/33 23/16/33 21/20/33
f 13/19/33 15/18/33 21/20/33
f 13/19/33 21/20/33 24/22/33
f 12/21/33 13/19/33 24/22/33
f 12/21/34 24/22/34 19/24/34
f 33/23/35 12/21/35 19/24/35
f 33/23/36 19/24/36 20/10/36
f 14/25/33 33/23/33 20/10/33
f 41/7/37 6/42/37 16/2/37
f 41/7/38 16/2/38 17/1/38
f 41/7/39 17/1/39 35/40/39
f 42/13/40 41/7/40 35/40/40
f 42/13/41 35/40/41 34/38/41
f 5/28/42 32/27/42 40/4/42
f 22/30/43 5/28/43 40/4/43
f 40/4/44 42/13/44 34/38/44
f 40/4/45 34/38/45 14/25/45
f 25/11/46 22/30/46 40/4/46
f 40/4/47 14/25/47 20/10/47
f 38/12/48 41/7/48 42/13/48
f 42/13/49 40/4/49 36/15/49
