# Blender 4.0.2
# www.blender.org
mtllib kitev2.mtl
g Plane_Plane
g Plane.001_Mesh
v -0.351377 0.430089 -0.621595
v -0.989792 0.294988 -0.562732
v -0.370175 0.507774 -0.548998
v -1.008590 0.376314 -0.490135
vn 0.1985 -0.6267 0.7535
vn 0.2040 -0.6416 0.7394
vt 0.506793 0.998672
vt 0.193395 0.969817
s 0
g off
g Plane.001_Material.001
usemtl Material.001
f 2/1/1 3/2/1 4/1/1
f 2/1/2 1/2/2 3/2/2
g Plane.002_Mesh
v 0.022267 0.499255 -0.433066
v -0.351377 0.430089 -0.621595
v 0.003470 0.587278 -0.360468
v -0.370175 0.507774 -0.548998
vn -0.2178 -0.6940 0.6862
vn -0.2287 -0.6480 0.7265
vt 0.075303 0.953249
vt 0.193395 0.969817
s 0
g off
g Plane.002_Material.002
usemtl Material.002
f 5/3/3 8/4/3 6/4/3
f 5/3/4 7/3/4 8/4/4
g Plane.003_Mesh
v 0.206678 0.383199 -0.099959
v 0.022267 0.499255 -0.433066
v 0.187881 0.481027 -0.027362
v 0.003470 0.587278 -0.360468
vn -0.8423 -0.4385 0.3135
vn -0.8463 -0.4126 0.3369
vt 0.000000 0.895950
vt 0.075303 0.953249
s 0
g off
g Plane.003_Material.002
usemtl Material.002
f 9/5/5 12/6/5 10/6/5
f 9/5/6 11/5/6 12/6/6
g Plane.004_Mesh
v 0.185696 0.169919 0.487194
v 0.206678 0.383199 -0.099959
v 0.166899 0.270388 0.559792
v 0.187881 0.481027 -0.027362
vn -0.9882 -0.1289 -0.0821
vn -0.9887 -0.1266 -0.0808
vt 0.000000 0.000000
vt 0.000000 0.895950
s 0
g off
g Plane.004_Material.002
usemtl Material.002
f 13/7/7 16/8/7 14/8/7
f 13/7/8 15/7/8 16/8/8
g Plane.005_Mesh
v 0.185696 0.169919 0.487194
v 0.644359 0.256082 -0.049769
v 0.166899 0.270388 0.559792
v 0.625561 0.453133 0.022828
vn 0.7757 -0.2678 0.5715
vn 0.7632 -0.1580 0.6265
vt 0.000000 0.000000
vt 0.509854 0.000000
s 0
g off
g Plane.005_Material.002
usemtl Material.002
f 17/9/9 20/10/9 19/9/9
f 17/9/10 18/10/10 20/10/10
g Plane.006_Mesh
v 0.680698 0.490318 -0.636510
v 0.644359 0.256082 -0.049769
v 0.661901 0.687370 -0.563912
v 0.625561 0.453133 0.022828
vn 0.9942 0.0629 0.0867
vt 1.000000 0.429792
vt 0.509854 0.000000
s 0
g off
g Plane.006_Material.002
usemtl Material.002
f 21/11/11 24/12/11 22/12/11
f 21/11/11 23/11/11 24/12/11
g Plane.007_Mesh
v 0.517905 0.585381 -1.033590
v 0.680698 0.490318 -0.636510
v 0.499108 0.782432 -0.960992
v 0.661901 0.687370 -0.563912
vn 0.9214 0.2087 -0.3278
vt 1.000000 0.429792
vt 1.000000 1.000000
s 0
g off
g Plane.007_Material.002
usemtl Material.002
f 26/13/12 27/14/12 28/13/12
f 26/13/12 25/14/12 27/14/12
g Plane.008_Mesh
v 0.517905 0.585381 -1.033590
v 0.100453 0.511092 -1.166738
v 0.499108 0.782432 -0.960992
v 0.081655 0.708143 -1.094141
vn 0.2260 0.3557 -0.9069
vt 1.000000 1.000000
vt 0.662355 1.000000
s 0
g off
g Plane.008_Material.002
usemtl Material.002
f 29/15/13 32/16/13 31/15/13
f 29/15/13 30/16/13 32/16/13
g Plane.009_Mesh
v -0.461909 0.389044 -0.998693
v 0.100453 0.511092 -1.166738
v -0.480706 0.586096 -0.926096
v 0.081655 0.708143 -1.094141
vn -0.3321 0.2980 -0.8949
vt 0.662355 1.000000
vt 0.520879 0.999544
s 0
g off
g Plane.009_Material.002
usemtl Material.002
f 34/17/14 35/18/14 36/17/14
f 34/17/14 33/18/14 35/18/14
g Plane.010_Mesh
v -0.989792 0.294988 -0.562732
v -0.461909 0.389044 -0.998693
v -1.008590 0.376314 -0.490135
v -0.480706 0.586096 -0.926096
vn -0.6446 0.2094 -0.7353
vn -0.6729 0.4000 -0.6223
vt 0.506793 0.998672
vt 0.520879 0.999544
s 0
g off
g Plane.010_Material.002
usemtl Material.002
f 37/19/15 40/20/15 38/20/15
f 37/19/16 39/19/16 40/20/16
g Plane.011_Mesh
v 0.166899 0.270388 0.559792
v 0.499108 0.782432 -0.960992
v 0.187881 0.481027 -0.027362
v 0.003470 0.587278 -0.360468
v -0.370175 0.507774 -0.548998
v -1.008590 0.376314 -0.490135
v 0.661901 0.687370 -0.563912
v 0.625561 0.453133 0.022828
v -0.480706 0.578936 -0.926096
v 0.081655 0.708143 -1.094141
vn 0.4013 0.8439 -0.3560
vn 0.0212 0.9408 0.3383
vn -0.3020 0.8917 0.3373
vn -0.1999 0.9764 0.0819
vn -0.1756 0.9567 0.2320
vn 0.0277 0.9567 0.2898
vn -0.3276 0.9063 0.2670
vn -0.1804 0.9255 0.3330
vt 0.509854 0.000000
vt 0.520879 0.999544
vt 0.075303 0.953249
vt 0.000000 0.895950
vt 0.000000 0.000000
vt 1.000000 0.429792
vt 1.000000 1.000000
vt 0.662355 1.000000
vt 0.506793 0.998672
vt 0.193395 0.969817
s 0
g off
g Plane.011_Material
usemtl Material
f 48/21/17 49/22/17 44/23/17
f 43/24/18 41/25/18 48/21/18
f 48/21/19 47/26/19 42/27/19
f 42/27/20 50/28/20 49/22/20
f 49/22/21 46/29/21 45/30/21
f 44/23/22 43/24/22 48/21/22
f 49/22/23 45/30/23 44/23/23
f 48/21/24 42/27/24 49/22/24
g Plane.012_Mesh
v 0.185696 0.169919 0.487194
v 0.517905 0.585381 -1.033590
v 0.206678 0.383199 -0.099959
v 0.022267 0.499255 -0.433066
v -0.351377 0.430089 -0.621595
v -0.989792 0.294988 -0.562732
v 0.680698 0.490318 -0.636510
v 0.644359 0.256082 -0.049769
v -0.461909 0.389044 -0.998693
v 0.100453 0.511092 -1.166738
vn 0.1972 -0.9801 0.0222
vn -0.2262 -0.9129 -0.3397
vn -0.2537 -0.9484 -0.1900
vn 0.3020 -0.8917 -0.3373
vn 0.1940 -0.9791 -0.0619
vn 0.2108 -0.9765 0.0445
vn -0.1882 -0.9384 -0.2899
vn 0.1507 -0.9866 0.0632
vt 0.075303 0.953249
vt 0.520879 0.999544
vt 1.000000 1.000000
vt 0.509854 0.000000
vt 0.000000 0.000000
vt 0.000000 0.895950
vt 1.000000 0.429792
vt 0.662355 1.000000
vt 0.193395 0.969817
vt 0.506793 0.998672
s 0
g off
g Plane.012_Material
usemtl Material
f 54/31/25 59/32/25 52/33/25
f 58/34/26 51/35/26 53/36/26
f 58/34/27 53/36/27 54/31/27
f 52/33/28 57/37/28 58/34/28
f 59/32/29 60/38/29 52/33/29
f 55/39/30 56/40/30 59/32/30
f 52/33/31 58/34/31 54/31/31
f 54/31/32 55/39/32 59/32/32
