# Blender 4.1.1
# www.blender.org
o cama_base.005
v -7.297767 0.592053 -12.324975
v -7.297767 0.418558 -12.324975
v -9.300520 0.592053 -9.780003
v -9.300520 0.418558 -9.780003
v -7.434108 0.592053 -12.432267
v -7.434108 0.418558 -12.432267
v -9.436861 0.592053 -9.887295
v -9.436861 0.418558 -9.887295
v -8.162200 0.592053 -13.005236
v -8.162200 0.418558 -13.005236
v -10.164953 0.592053 -10.460264
v -10.164953 0.418558 -10.460264
v -8.298541 0.592053 -13.112529
v -8.298541 0.418558 -13.112529
v -10.301294 0.592053 -10.567556
v -10.301294 0.418558 -10.567556
v -10.186598 -0.554700 -10.575644
v -10.186598 0.554700 -10.575644
v -10.145248 -0.554700 -10.628186
v -10.145248 0.554700 -10.628186
v -9.314777 -0.554700 -9.889568
v -9.314777 0.554700 -9.889568
v -9.273429 -0.554700 -9.942112
v -9.273429 0.554700 -9.942112
v -8.331340 -0.554700 -12.933187
v -8.331340 0.554700 -12.933187
v -8.289990 -0.554700 -12.985731
v -8.289990 0.554700 -12.985731
v -7.459519 -0.554700 -12.247113
v -7.459519 0.554700 -12.247113
v -7.418171 -0.554700 -12.299657
v -7.418171 0.554700 -12.299657
vn -0.7858 -0.0000 -0.6184
vn 0.6184 -0.0000 -0.7858
vn 0.7858 -0.0000 0.6184
vn -0.6184 -0.0000 0.7858
vn -0.0000 -1.0000 -0.0000
vn -0.0000 1.0000 -0.0000
vt 0.625000 0.000000
vt 0.375000 0.250000
vt 0.375000 0.000000
vt 0.625000 0.250000
vt 0.375000 0.500000
vt 0.625000 0.500000
vt 0.375000 0.750000
vt 0.625000 0.750000
vt 0.375000 1.000000
vt 0.125000 0.750000
vt 0.125000 0.500000
vt 0.875000 0.500000
vt 0.625000 1.000000
vt 0.875000 0.750000
s 1
f 2/1/1 3/2/1 1/3/1
f 4/4/2 7/5/2 3/2/2
f 8/6/3 5/7/3 7/5/3
f 6/8/4 1/9/4 5/7/4
f 7/5/5 1/10/5 3/11/5
f 4/12/6 6/8/6 8/6/6
f 4/4/2 8/6/2 7/5/2
f 8/6/3 6/8/3 5/7/3
f 7/5/5 5/7/5 1/10/5
f 2/1/1 4/4/1 3/2/1
f 6/8/4 2/13/4 1/9/4
f 4/12/6 2/14/6 6/8/6
f 10/1/1 11/2/1 9/3/1
f 12/4/2 15/5/2 11/2/2
f 16/6/3 13/7/3 15/5/3
f 14/8/4 9/9/4 13/7/4
f 15/5/5 9/10/5 11/11/5
f 12/12/6 14/8/6 16/6/6
f 12/4/2 16/6/2 15/5/2
f 16/6/3 14/8/3 13/7/3
f 15/5/5 13/7/5 9/10/5
f 10/1/1 12/4/1 11/2/1
f 14/8/4 10/13/4 9/9/4
f 12/12/6 10/14/6 14/8/6
s 0
f 18/1/1 19/2/1 17/3/1
f 20/4/2 23/5/2 19/2/2
f 24/6/3 21/7/3 23/5/3
f 22/8/4 17/9/4 21/7/4
f 23/5/5 17/10/5 19/11/5
f 20/12/6 22/8/6 24/6/6
f 18/1/1 20/4/1 19/2/1
f 20/4/2 24/6/2 23/5/2
f 24/6/3 22/8/3 21/7/3
f 22/8/4 18/13/4 17/9/4
f 23/5/5 21/7/5 17/10/5
f 20/12/6 18/14/6 22/8/6
f 26/1/1 27/2/1 25/3/1
f 28/4/2 31/5/2 27/2/2
f 32/6/3 29/7/3 31/5/3
f 30/8/4 25/9/4 29/7/4
f 31/5/5 25/10/5 27/11/5
f 28/12/6 30/8/6 32/6/6
f 26/1/1 28/4/1 27/2/1
f 28/4/2 32/6/2 31/5/2
f 32/6/3 30/8/3 29/7/3
f 30/8/4 26/13/4 25/9/4
f 31/5/5 29/7/5 25/10/5
f 28/12/6 26/14/6 30/8/6
