# Blender 4.1.1
# www.blender.org
o cama_base.003
v 13.110091 -22.339769 1.145962
v 13.107908 -22.345346 0.972571
v 10.014708 -23.289335 1.215466
v 10.012525 -23.294912 1.042075
v 13.059132 -22.173994 1.141271
v 13.056950 -22.179571 0.967880
v 9.963748 -23.123558 1.210776
v 9.961566 -23.129135 1.037384
v 12.786994 -21.288712 1.116221
v 12.784811 -21.294289 0.942830
v 9.691609 -22.238276 1.185725
v 9.689426 -22.243853 1.012334
v 12.736032 -21.122936 1.111530
v 12.733850 -21.128513 0.938139
v 9.640650 -22.072500 1.181035
v 9.638468 -22.078077 1.007643
v 9.725099 -22.168049 0.035608
v 9.739055 -22.132385 1.144347
v 9.789007 -22.148443 0.034173
v 9.802962 -22.112780 1.142912
v 10.050959 -23.228086 0.065603
v 10.064914 -23.192423 1.174342
v 10.114866 -23.208483 0.064168
v 10.128821 -23.172819 1.172907
v 12.592521 -21.288416 -0.028777
v 12.606476 -21.252752 1.079962
v 12.656427 -21.268812 -0.030212
v 12.670383 -21.233149 1.078526
v 12.918380 -22.348455 0.001218
v 12.932335 -22.312792 1.109957
v 12.982286 -22.328852 -0.000217
v 12.996243 -22.293188 1.108522
vn -0.2937 0.9555 -0.0270
vn 0.9558 0.2932 -0.0215
vn 0.2937 -0.9555 0.0270
vn -0.9558 -0.2932 0.0215
vn -0.0126 -0.0321 -0.9994
vn 0.0126 0.0321 0.9994
vt 0.625000 0.000000
vt 0.375000 0.250000
vt 0.375000 0.000000
vt 0.625000 0.250000
vt 0.375000 0.500000
vt 0.625000 0.500000
vt 0.375000 0.750000
vt 0.625000 0.750000
vt 0.375000 1.000000
vt 0.125000 0.750000
vt 0.125000 0.500000
vt 0.875000 0.500000
vt 0.625000 1.000000
vt 0.875000 0.750000
s 1
f 2/1/1 3/2/1 1/3/1
f 4/4/2 7/5/2 3/2/2
f 8/6/3 5/7/3 7/5/3
f 6/8/4 1/9/4 5/7/4
f 7/5/5 1/10/5 3/11/5
f 4/12/6 6/8/6 8/6/6
f 4/4/2 8/6/2 7/5/2
f 8/6/3 6/8/3 5/7/3
f 7/5/5 5/7/5 1/10/5
f 2/1/1 4/4/1 3/2/1
f 6/8/4 2/13/4 1/9/4
f 4/12/6 2/14/6 6/8/6
f 10/1/1 11/2/1 9/3/1
f 12/4/2 15/5/2 11/2/2
f 16/6/3 13/7/3 15/5/3
f 14/8/4 9/9/4 13/7/4
f 15/5/5 9/10/5 11/11/5
f 12/12/6 14/8/6 16/6/6
f 12/4/2 16/6/2 15/5/2
f 16/6/3 14/8/3 13/7/3
f 15/5/5 13/7/5 9/10/5
f 10/1/1 12/4/1 11/2/1
f 14/8/4 10/13/4 9/9/4
f 12/12/6 10/14/6 14/8/6
s 0
f 18/1/1 19/2/1 17/3/1
f 20/4/2 23/5/2 19/2/2
f 24/6/3 21/7/3 23/5/3
f 22/8/4 17/9/4 21/7/4
f 23/5/5 17/10/5 19/11/5
f 20/12/6 22/8/6 24/6/6
f 18/1/1 20/4/1 19/2/1
f 20/4/2 24/6/2 23/5/2
f 24/6/3 22/8/3 21/7/3
f 22/8/4 18/13/4 17/9/4
f 23/5/5 21/7/5 17/10/5
f 20/12/6 18/14/6 22/8/6
f 26/1/1 27/2/1 25/3/1
f 28/4/2 31/5/2 27/2/2
f 32/6/3 29/7/3 31/5/3
f 30/8/4 25/9/4 29/7/4
f 31/5/5 25/10/5 27/11/5
f 28/12/6 30/8/6 32/6/6
f 26/1/1 28/4/1 27/2/1
f 28/4/2 32/6/2 31/5/2
f 32/6/3 30/8/3 29/7/3
f 30/8/4 26/13/4 25/9/4
f 31/5/5 29/7/5 25/10/5
f 28/12/6 26/14/6 30/8/6
