# Blender 4.1.1
# www.blender.org
o cama_base.004
v 4.532323 0.592053 -12.512712
v 4.532323 0.418558 -12.512712
v 2.969890 0.592053 -9.676041
v 2.969890 0.418558 -9.676041
v 4.380355 0.592053 -12.596416
v 4.380355 0.418558 -12.596416
v 2.817923 0.592053 -9.759745
v 2.817923 0.418558 -9.759745
v 3.568810 0.592053 -13.043413
v 3.568810 0.418558 -13.043413
v 2.006378 0.592053 -10.206741
v 2.006378 0.418558 -10.206741
v 3.416842 0.592053 -13.127117
v 3.416842 0.418558 -13.127117
v 1.854410 0.592053 -10.290445
v 1.854410 0.418558 -10.290445
v 1.966266 -0.554700 -10.317068
v 1.966266 0.554700 -10.317068
v 1.998524 -0.554700 -10.375633
v 1.998524 0.554700 -10.375633
v 2.938013 -0.554700 -9.781832
v 2.938013 0.554700 -9.781832
v 2.970270 -0.554700 -9.840398
v 2.970271 0.554700 -9.840398
v 3.413632 -0.554700 -12.944830
v 3.413632 0.554700 -12.944830
v 3.445889 -0.554700 -13.003395
v 3.445890 0.554700 -13.003395
v 4.385378 -0.554700 -12.409594
v 4.385378 0.554700 -12.409594
v 4.417636 -0.554700 -12.468160
v 4.417636 0.554700 -12.468160
vn -0.8759 -0.0000 -0.4825
vn 0.4825 -0.0000 -0.8759
vn 0.8759 -0.0000 0.4825
vn -0.4825 -0.0000 0.8759
vn -0.0000 -1.0000 -0.0000
vn -0.0000 1.0000 -0.0000
vt 0.625000 0.000000
vt 0.375000 0.250000
vt 0.375000 0.000000
vt 0.625000 0.250000
vt 0.375000 0.500000
vt 0.625000 0.500000
vt 0.375000 0.750000
vt 0.625000 0.750000
vt 0.375000 1.000000
vt 0.125000 0.750000
vt 0.125000 0.500000
vt 0.875000 0.500000
vt 0.625000 1.000000
vt 0.875000 0.750000
s 1
f 2/1/1 3/2/1 1/3/1
f 4/4/2 7/5/2 3/2/2
f 8/6/3 5/7/3 7/5/3
f 6/8/4 1/9/4 5/7/4
f 7/5/5 1/10/5 3/11/5
f 4/12/6 6/8/6 8/6/6
f 4/4/2 8/6/2 7/5/2
f 8/6/3 6/8/3 5/7/3
f 7/5/5 5/7/5 1/10/5
f 2/1/1 4/4/1 3/2/1
f 6/8/4 2/13/4 1/9/4
f 4/12/6 2/14/6 6/8/6
f 10/1/1 11/2/1 9/3/1
f 12/4/2 15/5/2 11/2/2
f 16/6/3 13/7/3 15/5/3
f 14/8/4 9/9/4 13/7/4
f 15/5/5 9/10/5 11/11/5
f 12/12/6 14/8/6 16/6/6
f 12/4/2 16/6/2 15/5/2
f 16/6/3 14/8/3 13/7/3
f 15/5/5 13/7/5 9/10/5
f 10/1/1 12/4/1 11/2/1
f 14/8/4 10/13/4 9/9/4
f 12/12/6 10/14/6 14/8/6
s 0
f 18/1/1 19/2/1 17/3/1
f 20/4/2 23/5/2 19/2/2
f 24/6/3 21/7/3 23/5/3
f 22/8/4 17/9/4 21/7/4
f 23/5/5 17/10/5 19/11/5
f 20/12/6 22/8/6 24/6/6
f 18/1/1 20/4/1 19/2/1
f 20/4/2 24/6/2 23/5/2
f 24/6/3 22/8/3 21/7/3
f 22/8/4 18/13/4 17/9/4
f 23/5/5 21/7/5 17/10/5
f 20/12/6 18/14/6 22/8/6
f 26/1/1 27/2/1 25/3/1
f 28/4/2 31/5/2 27/2/2
f 32/6/3 29/7/3 31/5/3
f 30/8/4 25/9/4 29/7/4
f 31/5/5 25/10/5 27/11/5
f 28/12/6 30/8/6 32/6/6
f 26/1/1 28/4/1 27/2/1
f 28/4/2 32/6/2 31/5/2
f 32/6/3 30/8/3 29/7/3
f 30/8/4 26/13/4 25/9/4
f 31/5/5 29/7/5 25/10/5
f 28/12/6 26/14/6 30/8/6
