# Blender 4.1.1
# www.blender.org
o umb_top.003
v -10.533640 5.085877 -14.421546
v -12.558651 5.085877 -13.582759
v -13.397438 5.085877 -11.557747
v -12.558651 5.085877 -9.532736
v -10.533640 5.085877 -8.693949
v -8.508629 5.085877 -9.532736
v -7.669842 5.085877 -11.557747
v -8.508629 5.085877 -13.582759
v -10.700502 6.480046 -11.724609
v -10.533640 6.480046 -11.793728
v -10.769620 6.480046 -11.557748
v -10.700502 6.480046 -11.390885
v -10.533640 6.480046 -11.321767
v -10.366777 6.480046 -11.390885
v -10.297660 6.480046 -11.557748
v -10.366777 6.480046 -11.724609
v -10.533640 5.061987 -14.408873
v -12.549690 5.061987 -13.573797
v -13.384766 5.061987 -11.557747
v -12.549690 5.061987 -9.541698
v -10.533640 5.061987 -8.706622
v -8.517590 5.061987 -9.541698
v -7.682515 5.061987 -11.557747
v -8.517590 5.061987 -13.573797
v -10.694834 6.454218 -11.718942
v -10.533640 6.454218 -11.785710
v -10.761603 6.454218 -11.557748
v -10.694834 6.454218 -11.396553
v -10.533640 6.454218 -11.329784
v -10.372446 6.454218 -11.396553
v -10.305676 6.454218 -11.557748
v -10.372446 6.454218 -11.718942
vn -0.0000 1.0000 -0.0000
vn -0.1906 0.8672 -0.4601
vn -0.4601 0.8672 -0.1906
vn -0.4601 0.8672 0.1906
vn -0.1906 0.8672 0.4601
vn 0.1906 0.8672 0.4601
vn 0.4601 0.8672 0.1906
vn 0.4601 0.8672 -0.1906
vn 0.1906 0.8672 -0.4601
vn -0.0000 -1.0000 -0.0000
vn 0.1906 -0.8671 0.4602
vn 0.4602 -0.8671 0.1906
vn 0.4602 -0.8671 -0.1906
vn 0.1906 -0.8671 -0.4602
vn -0.1906 -0.8671 -0.4602
vn -0.4602 -0.8671 -0.1906
vn -0.4602 -0.8671 0.1906
vn -0.1906 -0.8671 0.4602
vn -0.3436 -0.4401 -0.8296
vn -0.8296 -0.4401 -0.3436
vn -0.8296 -0.4401 0.3436
vn -0.3436 -0.4401 0.8296
vn 0.3436 -0.4401 0.8296
vn 0.8296 -0.4401 0.3436
vn 0.8296 -0.4401 -0.3436
vn 0.3436 -0.4401 -0.8296
vt 0.000000 0.000000
s 0
f 9/1/1 11/1/1 12/1/1 13/1/1 14/1/1 15/1/1 16/1/1 10/1/1
f 9/1/2 10/1/2 1/1/2 2/1/2
f 11/1/3 9/1/3 2/1/3 3/1/3
f 12/1/4 11/1/4 3/1/4 4/1/4
f 13/1/5 12/1/5 4/1/5 5/1/5
f 14/1/6 13/1/6 5/1/6 6/1/6
f 15/1/7 14/1/7 6/1/7 7/1/7
f 16/1/8 15/1/8 7/1/8 8/1/8
f 10/1/9 16/1/9 8/1/9 1/1/9
f 25/1/10 26/1/10 32/1/10 31/1/10 30/1/10 29/1/10 28/1/10 27/1/10
f 25/1/11 18/1/11 17/1/11 26/1/11
f 27/1/12 19/1/12 18/1/12 25/1/12
f 28/1/13 20/1/13 19/1/13 27/1/13
f 29/1/14 21/1/14 20/1/14 28/1/14
f 30/1/15 22/1/15 21/1/15 29/1/15
f 31/1/16 23/1/16 22/1/16 30/1/16
f 32/1/17 24/1/17 23/1/17 31/1/17
f 26/1/18 17/1/18 24/1/18 32/1/18
f 2/1/19 1/1/19 17/1/19 18/1/19
f 3/1/20 2/1/20 18/1/20 19/1/20
f 4/1/21 3/1/21 19/1/21 20/1/21
f 5/1/22 4/1/22 20/1/22 21/1/22
f 6/1/23 5/1/23 21/1/23 22/1/23
f 7/1/24 6/1/24 22/1/24 23/1/24
f 8/1/25 7/1/25 23/1/25 24/1/25
f 1/1/26 8/1/26 24/1/26 17/1/26
