# Blender 4.1.1
# www.blender.org
o umb_top.003
v 12.889216 -3.803856 5.111212
v 12.049676 -1.779892 5.056677
v 10.024486 -0.941538 5.055202
v 7.999975 -1.779892 5.107650
v 7.162073 -3.803856 5.183299
v 8.001614 -5.827822 5.237833
v 10.026803 -6.666174 5.239309
v 12.051314 -5.827822 5.186861
v 10.209964 -3.592263 6.533130
v 10.279144 -3.759039 6.537623
v 10.043088 -3.523181 6.533008
v 9.876266 -3.592263 6.537330
v 9.807220 -3.759039 6.543563
v 9.876402 -3.925815 6.548057
v 10.043279 -3.994897 6.548178
v 10.210099 -3.925815 6.543857
v 12.876244 -3.804624 5.087497
v 12.040419 -1.789616 5.033203
v 10.024190 -0.954973 5.031734
v 8.008637 -1.789616 5.083951
v 7.174445 -3.804624 5.159264
v 8.010269 -5.819632 5.213558
v 10.026498 -6.654276 5.215026
v 12.042049 -5.819632 5.162810
v 10.203974 -3.598758 6.507572
v 10.270802 -3.759869 6.511912
v 10.042766 -3.532024 6.507454
v 9.881611 -3.598758 6.511629
v 9.814913 -3.759869 6.517651
v 9.881741 -3.920980 6.521992
v 10.042951 -3.987715 6.522109
v 10.204103 -3.920980 6.517934
vn 0.0126 0.0321 0.9994
vn 0.4709 0.2184 0.8548
vn 0.2013 0.4877 0.8495
vn -0.1798 0.4877 0.8543
vn -0.4492 0.2183 0.8663
vn -0.4491 -0.1626 0.8786
vn -0.1795 -0.4320 0.8839
vn 0.2017 -0.4320 0.8791
vn 0.4710 -0.1626 0.8670
vn -0.0126 -0.0321 -0.9994
vn -0.4710 -0.2184 -0.8547
vn -0.2013 -0.4878 -0.8494
vn 0.1799 -0.4878 -0.8542
vn 0.4493 -0.2184 -0.8663
vn 0.4492 0.1627 -0.8785
vn 0.1795 0.4321 -0.8838
vn -0.2017 0.4321 -0.8790
vn -0.4712 0.1626 -0.8669
vn 0.8239 0.3293 -0.4613
vn 0.3377 0.8150 -0.4708
vn -0.3495 0.8150 -0.4622
vn -0.8352 0.3293 -0.4404
vn -0.8349 -0.3576 -0.4183
vn -0.3488 -0.8433 -0.4088
vn 0.3384 -0.8433 -0.4175
vn 0.8241 -0.3576 -0.4393
vn 0.4709 0.2183 0.8548
vn -0.4492 0.2184 0.8663
vn -0.4712 0.1627 -0.8669
vn 0.8238 0.3293 -0.4613
vn -0.8349 -0.3576 -0.4184
vn -0.3488 -0.8433 -0.4089
vn 0.8241 -0.3576 -0.4392
vt 0.000000 0.000000
s 0
f 13/1/1 15/1/1 10/1/1
f 10/1/2 2/1/2 9/1/2
f 11/1/3 2/1/3 3/1/3
f 11/1/4 4/1/4 12/1/4
f 13/1/5 4/1/5 5/1/5
f 13/1/6 6/1/6 14/1/6
f 15/1/7 6/1/7 7/1/7
f 15/1/8 8/1/8 16/1/8
f 10/1/9 8/1/9 1/1/9
f 31/1/10 29/1/10 27/1/10
f 18/1/11 26/1/11 25/1/11
f 19/1/12 25/1/12 27/1/12
f 20/1/13 27/1/13 28/1/13
f 29/1/14 20/1/14 28/1/14
f 22/1/15 29/1/15 30/1/15
f 23/1/16 30/1/16 31/1/16
f 24/1/17 31/1/17 32/1/17
f 26/1/18 24/1/18 32/1/18
f 2/1/19 17/1/19 18/1/19
f 3/1/20 18/1/20 19/1/20
f 3/1/21 20/1/21 4/1/21
f 4/1/22 21/1/22 5/1/22
f 6/1/23 21/1/23 22/1/23
f 7/1/24 22/1/24 23/1/24
f 7/1/25 24/1/25 8/1/25
f 8/1/26 17/1/26 1/1/26
f 10/1/1 9/1/1 11/1/1
f 11/1/1 12/1/1 13/1/1
f 13/1/1 14/1/1 15/1/1
f 15/1/1 16/1/1 10/1/1
f 10/1/1 11/1/1 13/1/1
f 10/1/27 1/1/27 2/1/27
f 11/1/3 9/1/3 2/1/3
f 11/1/4 3/1/4 4/1/4
f 13/1/28 12/1/28 4/1/28
f 13/1/6 5/1/6 6/1/6
f 15/1/7 14/1/7 6/1/7
f 15/1/8 7/1/8 8/1/8
f 10/1/9 16/1/9 8/1/9
f 27/1/10 25/1/10 26/1/10
f 26/1/10 32/1/10 31/1/10
f 31/1/10 30/1/10 29/1/10
f 29/1/10 28/1/10 27/1/10
f 27/1/10 26/1/10 31/1/10
f 18/1/11 17/1/11 26/1/11
f 19/1/12 18/1/12 25/1/12
f 20/1/13 19/1/13 27/1/13
f 29/1/14 21/1/14 20/1/14
f 22/1/15 21/1/15 29/1/15
f 23/1/16 22/1/16 30/1/16
f 24/1/17 23/1/17 31/1/17
f 26/1/29 17/1/29 24/1/29
f 2/1/30 1/1/30 17/1/30
f 3/1/20 2/1/20 18/1/20
f 3/1/21 19/1/21 20/1/21
f 4/1/22 20/1/22 21/1/22
f 6/1/31 5/1/31 21/1/31
f 7/1/32 6/1/32 22/1/32
f 7/1/25 23/1/25 24/1/25
f 8/1/33 24/1/33 17/1/33
