# Blender 4.1.1
# www.blender.org
mtllib cama_base_001.mtl
o cama_base.001
v 2.855898 -0.519466 22.698389
v 2.855118 -0.519989 22.524899
v -0.296302 -1.261937 22.714827
v -0.297083 -1.262462 22.541334
v 2.816120 -0.350592 22.698059
v 2.815340 -0.351116 22.524569
v -0.336080 -1.093065 22.714499
v -0.336861 -1.093589 22.541006
v 2.603695 0.551230 22.696293
v 2.602914 0.550706 22.522799
v -0.548505 -0.191242 22.712730
v -0.549287 -0.191766 22.539238
v 2.563917 0.720103 22.695961
v 2.563135 0.719579 22.522469
v -0.588283 -0.022369 22.712399
v -0.589065 -0.022893 22.538906
v -0.498703 -0.090979 21.565432
v -0.493707 -0.087629 22.674816
v -0.433622 -0.075650 21.565094
v -0.428627 -0.072300 22.674477
v -0.244344 -1.170825 21.567551
v -0.239348 -1.167474 22.676935
v -0.179264 -1.155496 21.567209
v -0.174268 -1.152145 22.676594
v 2.421350 0.596813 21.550207
v 2.426346 0.600164 22.659590
v 2.486431 0.612141 21.549866
v 2.491426 0.615493 22.659250
v 2.675709 -0.483032 21.552322
v 2.680705 -0.479681 22.661705
v 2.740789 -0.467704 21.551983
v 2.745785 -0.464352 22.661366
vn -0.2293 0.9734 -0.0019
vn 0.9734 0.2293 -0.0051
vn 0.2293 -0.9734 0.0019
vn -0.9734 -0.2293 0.0051
vn -0.0045 -0.0030 -1.0000
vn 0.0045 0.0030 1.0000
vn -0.0046 -0.0030 -1.0000
vn 0.0046 0.0030 1.0000
vn -0.0044 -0.0030 -1.0000
vn 0.0047 0.0031 1.0000
vt 0.625000 0.000000
vt 0.375000 0.250000
vt 0.375000 0.000000
vt 0.625000 0.250000
vt 0.375000 0.500000
vt 0.625000 0.500000
vt 0.375000 0.750000
vt 0.625000 0.750000
vt 0.375000 1.000000
vt 0.125000 0.750000
vt 0.125000 0.500000
vt 0.875000 0.500000
vt 0.625000 1.000000
vt 0.875000 0.750000
s 1
usemtl Material.011
f 2/1/1 3/2/1 1/3/1
f 4/4/2 7/5/2 3/2/2
f 8/6/3 5/7/3 7/5/3
f 6/8/4 1/9/4 5/7/4
f 7/5/5 1/10/5 3/11/5
f 4/12/6 6/8/6 8/6/6
f 4/4/2 8/6/2 7/5/2
f 8/6/3 6/8/3 5/7/3
f 7/5/5 5/7/5 1/10/5
f 2/1/1 4/4/1 3/2/1
f 6/8/4 2/13/4 1/9/4
f 4/12/6 2/14/6 6/8/6
usemtl Material.012
f 10/1/1 11/2/1 9/3/1
f 12/4/2 15/5/2 11/2/2
f 16/6/3 13/7/3 15/5/3
f 14/8/4 9/9/4 13/7/4
f 15/5/5 9/10/5 11/11/5
f 12/12/6 14/8/6 16/6/6
f 12/4/2 16/6/2 15/5/2
f 16/6/3 14/8/3 13/7/3
f 15/5/5 13/7/5 9/10/5
f 10/1/1 12/4/1 11/2/1
f 14/8/4 10/13/4 9/9/4
f 12/12/6 10/14/6 14/8/6
s 0
usemtl Material.013
f 18/1/1 19/2/1 17/3/1
f 20/4/2 23/5/2 19/2/2
f 24/6/3 21/7/3 23/5/3
f 22/8/4 17/9/4 21/7/4
f 23/5/7 17/10/7 19/11/7
f 20/12/8 22/8/8 24/6/8
f 18/1/1 20/4/1 19/2/1
f 20/4/2 24/6/2 23/5/2
f 24/6/3 22/8/3 21/7/3
f 22/8/4 18/13/4 17/9/4
f 23/5/9 21/7/9 17/10/9
f 20/12/10 18/14/10 22/8/10
usemtl Material.014
f 26/1/1 27/2/1 25/3/1
f 28/4/2 31/5/2 27/2/2
f 32/6/3 29/7/3 31/5/3
f 30/8/4 25/9/4 29/7/4
f 31/5/5 25/10/5 27/11/5
f 28/12/6 30/8/6 32/6/6
f 26/1/1 28/4/1 27/2/1
f 28/4/2 32/6/2 31/5/2
f 32/6/3 30/8/3 29/7/3
f 30/8/4 26/13/4 25/9/4
f 31/5/5 29/7/5 25/10/5
f 28/12/6 26/14/6 30/8/6
