# Blender 4.1.1
# www.blender.org
mtllib cama_base_002.mtl
o cama_base.002
v 3.033408 -20.319864 22.757406
v 3.032627 -20.320389 22.583914
v -0.055108 -21.293867 22.774258
v -0.055889 -21.294392 22.600765
v 2.981226 -20.154402 22.757141
v 2.980445 -20.154926 22.583649
v -0.107290 -21.128410 22.773993
v -0.108071 -21.128931 22.600498
v 2.702562 -19.270798 22.755726
v 2.701781 -19.271322 22.582233
v -0.385954 -20.244804 22.772577
v -0.386736 -20.245327 22.599087
v 2.650380 -19.105335 22.755463
v 2.649599 -19.105862 22.581970
v -0.438136 -20.079344 22.772312
v -0.438918 -20.079866 22.598822
v -0.343989 -20.140753 21.625305
v -0.338994 -20.137402 22.734688
v -0.280224 -20.120644 21.624956
v -0.275228 -20.117294 22.734341
v -0.010316 -21.198784 21.626999
v -0.005320 -21.195431 22.736382
v 0.053450 -21.178673 21.626648
v 0.058446 -21.175322 22.736032
v 2.517069 -19.238482 21.609694
v 2.522066 -19.235128 22.719078
v 2.580835 -19.218370 21.609348
v 2.585831 -19.215019 22.718731
v 2.850743 -20.296509 21.611387
v 2.855739 -20.293158 22.720774
v 2.914509 -20.276400 21.611040
v 2.919505 -20.273046 22.720425
vn -0.3008 0.9537 -0.0016
vn -0.3008 0.9537 -0.0015
vn 0.9537 0.3008 -0.0052
vn 0.3008 -0.9537 0.0015
vn -0.9537 -0.3008 0.0052
vn -0.0045 -0.0030 -1.0000
vn 0.0045 0.0030 1.0000
vn 0.3008 -0.9537 0.0016
vn -0.0046 -0.0030 -1.0000
vt 0.625000 0.000000
vt 0.375000 0.250000
vt 0.375000 0.000000
vt 0.625000 0.250000
vt 0.375000 0.500000
vt 0.625000 0.500000
vt 0.375000 0.750000
vt 0.625000 0.750000
vt 0.375000 1.000000
vt 0.125000 0.750000
vt 0.125000 0.500000
vt 0.875000 0.500000
vt 0.625000 1.000000
vt 0.875000 0.750000
s 1
usemtl Material.019
f 2/1/1 3/2/2 1/3/1
f 4/4/3 7/5/3 3/2/3
f 8/6/4 5/7/4 7/5/4
f 6/8/5 1/9/5 5/7/5
f 7/5/6 1/10/6 3/11/6
f 4/12/7 6/8/7 8/6/7
f 4/4/3 8/6/3 7/5/3
f 8/6/4 6/8/4 5/7/4
f 7/5/6 5/7/6 1/10/6
f 2/1/1 4/4/2 3/2/2
f 6/8/5 2/13/5 1/9/5
f 4/12/7 2/14/7 6/8/7
usemtl madeira
f 10/1/1 11/2/2 9/3/1
f 12/4/3 15/5/3 11/2/3
f 16/6/4 13/7/8 15/5/4
f 14/8/5 9/9/5 13/7/5
f 15/5/6 9/10/6 11/11/6
f 12/12/7 14/8/7 16/6/7
f 12/4/3 16/6/3 15/5/3
f 16/6/4 14/8/8 13/7/8
f 15/5/6 13/7/6 9/10/6
f 10/1/1 12/4/2 11/2/2
f 14/8/5 10/13/5 9/9/5
f 12/12/7 10/14/7 14/8/7
s 0
usemtl Material.021
f 18/1/2 19/2/2 17/3/2
f 20/4/3 23/5/3 19/2/3
f 24/6/4 21/7/4 23/5/4
f 22/8/5 17/9/5 21/7/5
f 23/5/9 17/10/9 19/11/9
f 20/12/7 22/8/7 24/6/7
f 18/1/2 20/4/2 19/2/2
f 20/4/3 24/6/3 23/5/3
f 24/6/4 22/8/4 21/7/4
f 22/8/5 18/13/5 17/9/5
f 23/5/6 21/7/6 17/10/6
f 20/12/7 18/14/7 22/8/7
usemtl Material.022
f 26/1/2 27/2/2 25/3/2
f 28/4/3 31/5/3 27/2/3
f 32/6/4 29/7/4 31/5/4
f 30/8/5 25/9/5 29/7/5
f 31/5/6 25/10/6 27/11/6
f 28/12/7 30/8/7 32/6/7
f 26/1/2 28/4/2 27/2/2
f 28/4/3 32/6/3 31/5/3
f 32/6/4 30/8/4 29/7/4
f 30/8/5 26/13/5 25/9/5
f 31/5/6 29/7/6 25/10/6
f 28/12/7 26/14/7 30/8/7
